<svg width="280" height="166" viewBox="0 0 280 166" fill="none" xmlns="http://www.w3.org/2000/svg">
<path d="M10.9393 165.061C11.5251 165.646 12.4749 165.646 13.0607 165.061L22.6066 155.515C23.1924 154.929 23.1924 153.979 22.6066 153.393C22.0208 152.808 21.0711 152.808 20.4853 153.393L12 161.879L3.51472 153.393C2.92893 152.808 1.97919 152.808 1.3934 153.393C0.807611 153.979 0.807611 154.929 1.3934 155.515L10.9393 165.061ZM13.5 164C13.5 158.728 13.8533 153.911 14.5233 149.508L11.5575 149.057C10.8621 153.625 10.5 158.595 10.5 164H13.5ZM25.0425 123.455C30.9729 115.944 38.9097 110.934 48.161 107.544L47.1289 104.727C37.4973 108.256 29.0445 113.545 22.688 121.596L25.0425 123.455ZM76.3976 101.639C85.8809 100.656 95.7492 100.284 105.536 99.9199L105.424 96.922C95.6549 97.2854 85.687 97.6604 76.0884 98.6548L76.3976 101.639ZM134.886 98.1548C145.613 96.971 155.524 94.8963 163.627 90.8283L162.281 88.1473C154.65 91.9782 145.155 94.0033 134.557 95.1729L134.886 98.1548ZM182.646 68.1669C183.879 63.8075 184.525 58.8609 184.525 53.2489H181.525C181.525 58.6325 180.905 63.299 179.759 67.3505L182.646 68.1669ZM184.525 53.2489C184.525 46.9388 184.692 41.4236 185.09 36.6001L182.1 36.3536C181.693 41.2882 181.525 46.8922 181.525 53.2489H184.525ZM197.74 8.7073C204.478 4.9256 214.57 3.75403 229.779 3.53978L229.737 0.540075C214.598 0.753334 203.761 1.88753 196.272 6.09121L197.74 8.7073ZM263.2 3.7669C268.459 3.8218 274.052 3.86327 280 3.86327V0.863266C274.066 0.863266 268.484 0.821897 263.231 0.767066L263.2 3.7669Z" fill="#7ED956"/>
</svg>
